<?xml version="1.0" standalone="no"?><svg xmlns="http://www.w3.org/2000/svg" viewBox="0 0 1440 320"><path fill="#0099ff" fill-opacity="1" d="M0,128L30,112C60,96,120,64,180,64C240,64,300,96,360,90.7C420,85,480,43,540,48C600,53,660,107,720,154.7C780,203,840,245,900,218.7C960,192,1020,96,1080,101.3C1140,107,1200,213,1260,224C1320,235,1380,149,1410,106.7L1440,64L1440,320L1410,320C1380,320,1320,320,1260,320C1200,320,1140,320,1080,320C1020,320,960,320,900,320C840,320,780,320,720,320C660,320,600,320,540,320C480,320,420,320,360,320C300,320,240,320,180,320C120,320,60,320,30,320L0,320Z"></path></svg>